<mxfile host="app.diagrams.net" agent="Mozilla/5.0 (Windows NT 10.0; Win64; x64) AppleWebKit/537.36 (KHTML, like Gecko) Chrome/136.0.0.0 Safari/537.36 Edg/136.0.0.0" border="50" scale="3" compressed="false" locked="false" version="27.0.3">
  <diagram name="Blank" id="YmL12bMKpDGza6XwsDPr">
    <mxGraphModel dx="2422" dy="265" grid="0" gridSize="10" guides="1" tooltips="1" connect="1" arrows="1" fold="1" page="0" pageScale="1" pageWidth="827" pageHeight="1169" background="none" math="1" shadow="0">
      <root>
        <mxCell id="X5NqExCQtvZxIxQ7pmgY-0" />
        <mxCell id="1" parent="X5NqExCQtvZxIxQ7pmgY-0" />
        <mxCell id="lFJ8bcKFK8LMrN1udut2-37" value="" style="rounded=1;whiteSpace=wrap;html=1;strokeWidth=2;align=center;verticalAlign=top;spacingTop=4;spacingBottom=0;fontFamily=Helvetica;fontSize=15;fontColor=#7EA6E0;fontStyle=1;fillColor=#EDF5FF;shadow=0;" parent="1" vertex="1">
          <mxGeometry x="-627" y="830" width="448" height="82" as="geometry" />
        </mxCell>
        <mxCell id="lFJ8bcKFK8LMrN1udut2-35" value="" style="rounded=1;whiteSpace=wrap;html=1;strokeWidth=2;align=center;verticalAlign=top;spacingTop=4;spacingBottom=0;fontFamily=Helvetica;fontSize=15;fontColor=#7EA6E0;fontStyle=1;fillColor=#FFFF99;shadow=0;" parent="1" vertex="1">
          <mxGeometry x="-694" y="710" width="606" height="82" as="geometry" />
        </mxCell>
        <mxCell id="lFJ8bcKFK8LMrN1udut2-1" value="" style="points=[];aspect=fixed;html=1;align=center;shadow=0;dashed=0;fillColor=#FF6A00;strokeColor=none;shape=mxgraph.alibaba_cloud.uis_ultimate_internet_service;" parent="1" vertex="1">
          <mxGeometry x="-815.45" y="801" width="54.900000000000006" height="54" as="geometry" />
        </mxCell>
        <mxCell id="lFJ8bcKFK8LMrN1udut2-3" value="" style="image;html=1;image=img/lib/clip_art/networking/Router_Icon_128x128.png;shadow=1;" parent="1" vertex="1">
          <mxGeometry x="-629" y="710" width="80" height="80" as="geometry" />
        </mxCell>
        <mxCell id="lFJ8bcKFK8LMrN1udut2-4" value="" style="image;html=1;image=img/lib/clip_art/networking/Router_Icon_128x128.png;shadow=1;" parent="1" vertex="1">
          <mxGeometry x="-428" y="710" width="80" height="80" as="geometry" />
        </mxCell>
        <mxCell id="lFJ8bcKFK8LMrN1udut2-5" value="" style="image;html=1;image=img/lib/clip_art/networking/Router_Icon_128x128.png;fontStyle=1;shadow=1;" parent="1" vertex="1">
          <mxGeometry x="-227" y="710" width="80" height="80" as="geometry" />
        </mxCell>
        <mxCell id="lFJ8bcKFK8LMrN1udut2-23" value="" style="sketch=0;points=[[0.015,0.015,0],[0.985,0.015,0],[0.985,0.985,0],[0.015,0.985,0],[0.25,0,0],[0.5,0,0],[0.75,0,0],[1,0.25,0],[1,0.5,0],[1,0.75,0],[0.75,1,0],[0.5,1,0],[0.25,1,0],[0,0.75,0],[0,0.5,0],[0,0.25,0]];verticalLabelPosition=bottom;html=1;verticalAlign=top;aspect=fixed;align=center;pointerEvents=1;shape=mxgraph.cisco19.rect;prIcon=l3_switch;fillColor=#FAFAFA;strokeColor=#005073;strokeWidth=2;spacingTop=4;spacingBottom=0;fontFamily=Helvetica;fontSize=15;fontColor=#7EA6E0;fontStyle=1;" parent="1" vertex="1">
          <mxGeometry x="-617" y="846" width="50" height="50" as="geometry" />
        </mxCell>
        <mxCell id="lFJ8bcKFK8LMrN1udut2-24" value="" style="sketch=0;points=[[0.015,0.015,0],[0.985,0.015,0],[0.985,0.985,0],[0.015,0.985,0],[0.25,0,0],[0.5,0,0],[0.75,0,0],[1,0.25,0],[1,0.5,0],[1,0.75,0],[0.75,1,0],[0.5,1,0],[0.25,1,0],[0,0.75,0],[0,0.5,0],[0,0.25,0]];verticalLabelPosition=bottom;html=1;verticalAlign=top;aspect=fixed;align=center;pointerEvents=1;shape=mxgraph.cisco19.rect;prIcon=l3_switch;fillColor=#FAFAFA;strokeColor=#005073;strokeWidth=2;spacingTop=4;spacingBottom=0;fontFamily=Helvetica;fontSize=15;fontColor=#7EA6E0;fontStyle=1;" parent="1" vertex="1">
          <mxGeometry x="-541" y="846" width="50" height="50" as="geometry" />
        </mxCell>
        <mxCell id="lFJ8bcKFK8LMrN1udut2-25" value="" style="sketch=0;points=[[0.015,0.015,0],[0.985,0.015,0],[0.985,0.985,0],[0.015,0.985,0],[0.25,0,0],[0.5,0,0],[0.75,0,0],[1,0.25,0],[1,0.5,0],[1,0.75,0],[0.75,1,0],[0.5,1,0],[0.25,1,0],[0,0.75,0],[0,0.5,0],[0,0.25,0]];verticalLabelPosition=bottom;html=1;verticalAlign=top;aspect=fixed;align=center;pointerEvents=1;shape=mxgraph.cisco19.rect;prIcon=l3_switch;fillColor=#FAFAFA;strokeColor=#005073;strokeWidth=2;spacingTop=4;spacingBottom=0;fontFamily=Helvetica;fontSize=15;fontColor=#7EA6E0;fontStyle=1;" parent="1" vertex="1">
          <mxGeometry x="-465" y="846" width="50" height="50" as="geometry" />
        </mxCell>
        <mxCell id="lFJ8bcKFK8LMrN1udut2-26" value="" style="sketch=0;points=[[0.015,0.015,0],[0.985,0.015,0],[0.985,0.985,0],[0.015,0.985,0],[0.25,0,0],[0.5,0,0],[0.75,0,0],[1,0.25,0],[1,0.5,0],[1,0.75,0],[0.75,1,0],[0.5,1,0],[0.25,1,0],[0,0.75,0],[0,0.5,0],[0,0.25,0]];verticalLabelPosition=bottom;html=1;verticalAlign=top;aspect=fixed;align=center;pointerEvents=1;shape=mxgraph.cisco19.rect;prIcon=l3_switch;fillColor=#FAFAFA;strokeColor=#005073;strokeWidth=2;spacingTop=4;spacingBottom=0;fontFamily=Helvetica;fontSize=15;fontColor=#7EA6E0;fontStyle=1;" parent="1" vertex="1">
          <mxGeometry x="-391" y="846" width="50" height="50" as="geometry" />
        </mxCell>
        <mxCell id="lFJ8bcKFK8LMrN1udut2-27" value="" style="sketch=0;points=[[0.015,0.015,0],[0.985,0.015,0],[0.985,0.985,0],[0.015,0.985,0],[0.25,0,0],[0.5,0,0],[0.75,0,0],[1,0.25,0],[1,0.5,0],[1,0.75,0],[0.75,1,0],[0.5,1,0],[0.25,1,0],[0,0.75,0],[0,0.5,0],[0,0.25,0]];verticalLabelPosition=bottom;html=1;verticalAlign=top;aspect=fixed;align=center;pointerEvents=1;shape=mxgraph.cisco19.rect;prIcon=l3_switch;fillColor=#FAFAFA;strokeColor=#005073;strokeWidth=2;spacingTop=4;spacingBottom=0;fontFamily=Helvetica;fontSize=15;fontColor=#7EA6E0;fontStyle=1;" parent="1" vertex="1">
          <mxGeometry x="-317" y="846" width="50" height="50" as="geometry" />
        </mxCell>
        <mxCell id="lFJ8bcKFK8LMrN1udut2-29" value="" style="sketch=0;points=[[0.015,0.015,0],[0.985,0.015,0],[0.985,0.985,0],[0.015,0.985,0],[0.25,0,0],[0.5,0,0],[0.75,0,0],[1,0.25,0],[1,0.5,0],[1,0.75,0],[0.75,1,0],[0.5,1,0],[0.25,1,0],[0,0.75,0],[0,0.5,0],[0,0.25,0]];verticalLabelPosition=bottom;html=1;verticalAlign=top;aspect=fixed;align=center;pointerEvents=1;shape=mxgraph.cisco19.rect;prIcon=l3_switch;fillColor=#FAFAFA;strokeColor=#005073;strokeWidth=2;spacingTop=4;spacingBottom=0;fontFamily=Helvetica;fontSize=15;fontColor=#7EA6E0;fontStyle=1;" parent="1" vertex="1">
          <mxGeometry x="-243" y="844" width="54" height="54" as="geometry" />
        </mxCell>
        <mxCell id="lFJ8bcKFK8LMrN1udut2-31" value="" style="endArrow=none;html=1;rounded=0;fontFamily=Helvetica;fontSize=15;fontColor=#7EA6E0;fontStyle=1;exitX=1;exitY=0.5;exitDx=0;exitDy=0;entryX=0;entryY=0.5;entryDx=0;entryDy=0;shadow=1;" parent="1" source="lFJ8bcKFK8LMrN1udut2-4" target="lFJ8bcKFK8LMrN1udut2-5" edge="1">
          <mxGeometry width="50" height="50" relative="1" as="geometry">
            <mxPoint x="-339" y="786" as="sourcePoint" />
            <mxPoint x="-289" y="736" as="targetPoint" />
            <Array as="points">
              <mxPoint x="-282" y="750" />
            </Array>
          </mxGeometry>
        </mxCell>
        <mxCell id="lFJ8bcKFK8LMrN1udut2-33" value="" style="endArrow=none;html=1;rounded=0;fontFamily=Helvetica;fontSize=15;fontColor=#7EA6E0;fontStyle=1;exitX=1;exitY=0.5;exitDx=0;exitDy=0;entryX=0;entryY=0.5;entryDx=0;entryDy=0;shadow=1;" parent="1" source="lFJ8bcKFK8LMrN1udut2-3" target="lFJ8bcKFK8LMrN1udut2-4" edge="1">
          <mxGeometry width="50" height="50" relative="1" as="geometry">
            <mxPoint x="-339" y="786" as="sourcePoint" />
            <mxPoint x="-289" y="736" as="targetPoint" />
          </mxGeometry>
        </mxCell>
        <mxCell id="lFJ8bcKFK8LMrN1udut2-38" value="" style="rounded=0;whiteSpace=wrap;html=1;strokeWidth=2;align=center;verticalAlign=top;spacingTop=4;spacingBottom=0;fontFamily=Helvetica;fontSize=15;fontColor=#7EA6E0;fontStyle=1;fillColor=#99FF33;" parent="1" vertex="1">
          <mxGeometry x="-1085" y="706" width="156" height="220" as="geometry" />
        </mxCell>
        <mxCell id="lFJ8bcKFK8LMrN1udut2-40" value="" style="rounded=0;whiteSpace=wrap;html=1;strokeWidth=2;align=center;verticalAlign=top;spacingTop=4;spacingBottom=0;fontFamily=Helvetica;fontSize=15;fontColor=#7EA6E0;fontStyle=1;fillColor=#6600CC;" parent="1" vertex="1">
          <mxGeometry x="-1085" y="980" width="151" height="245" as="geometry" />
        </mxCell>
        <mxCell id="lFJ8bcKFK8LMrN1udut2-55" value="" style="verticalLabelPosition=bottom;sketch=0;aspect=fixed;html=1;verticalAlign=top;strokeColor=none;align=center;outlineConnect=0;shape=mxgraph.citrix.switch;strokeWidth=2;spacingTop=4;spacingBottom=0;fontFamily=Helvetica;fontSize=15;fontColor=#7EA6E0;fontStyle=1;fillColor=#EDF5FF;" parent="1" vertex="1">
          <mxGeometry x="-1060" y="1041" width="92" height="41.5" as="geometry" />
        </mxCell>
        <mxCell id="lFJ8bcKFK8LMrN1udut2-62" value="" style="image;aspect=fixed;perimeter=ellipsePerimeter;html=1;align=center;shadow=0;dashed=0;spacingTop=3;image=img/lib/active_directory/laptop_client.svg;strokeWidth=2;verticalAlign=top;spacingBottom=0;fontFamily=Helvetica;fontSize=15;fontColor=#7EA6E0;fontStyle=1;fillColor=#EDF5FF;" parent="1" vertex="1">
          <mxGeometry x="-1061" y="1104" width="78.3" height="87" as="geometry" />
        </mxCell>
        <mxCell id="lFJ8bcKFK8LMrN1udut2-64" value="" style="rounded=0;whiteSpace=wrap;html=1;strokeWidth=2;align=center;verticalAlign=top;spacingTop=4;spacingBottom=0;fontFamily=Helvetica;fontSize=15;fontColor=#7EA6E0;fontStyle=1;fillColor=#FF3399;" parent="1" vertex="1">
          <mxGeometry x="-919" y="980" width="151" height="245" as="geometry" />
        </mxCell>
        <mxCell id="lFJ8bcKFK8LMrN1udut2-65" value="" style="verticalLabelPosition=bottom;sketch=0;aspect=fixed;html=1;verticalAlign=top;strokeColor=none;align=center;outlineConnect=0;shape=mxgraph.citrix.switch;strokeWidth=2;spacingTop=4;spacingBottom=0;fontFamily=Helvetica;fontSize=15;fontColor=#7EA6E0;fontStyle=1;fillColor=#EDF5FF;" parent="1" vertex="1">
          <mxGeometry x="-894" y="1041" width="92" height="41.5" as="geometry" />
        </mxCell>
        <mxCell id="lFJ8bcKFK8LMrN1udut2-66" value="" style="image;aspect=fixed;perimeter=ellipsePerimeter;html=1;align=center;shadow=0;dashed=0;spacingTop=3;image=img/lib/active_directory/laptop_client.svg;strokeWidth=2;verticalAlign=top;spacingBottom=0;fontFamily=Helvetica;fontSize=15;fontColor=#7EA6E0;fontStyle=1;fillColor=#EDF5FF;" parent="1" vertex="1">
          <mxGeometry x="-895" y="1104" width="78.3" height="87" as="geometry" />
        </mxCell>
        <mxCell id="lFJ8bcKFK8LMrN1udut2-85" value="" style="rounded=0;whiteSpace=wrap;html=1;strokeWidth=2;align=center;verticalAlign=top;spacingTop=4;spacingBottom=0;fontFamily=Helvetica;fontSize=15;fontColor=#7EA6E0;fontStyle=1;fillColor=#66FFB3;" parent="1" vertex="1">
          <mxGeometry x="-752" y="980" width="151" height="245" as="geometry" />
        </mxCell>
        <mxCell id="lFJ8bcKFK8LMrN1udut2-86" value="" style="verticalLabelPosition=bottom;sketch=0;aspect=fixed;html=1;verticalAlign=top;strokeColor=none;align=center;outlineConnect=0;shape=mxgraph.citrix.switch;strokeWidth=2;spacingTop=4;spacingBottom=0;fontFamily=Helvetica;fontSize=15;fontColor=#7EA6E0;fontStyle=1;fillColor=#EDF5FF;" parent="1" vertex="1">
          <mxGeometry x="-727" y="1041" width="92" height="41.5" as="geometry" />
        </mxCell>
        <mxCell id="lFJ8bcKFK8LMrN1udut2-87" value="" style="image;aspect=fixed;perimeter=ellipsePerimeter;html=1;align=center;shadow=0;dashed=0;spacingTop=3;image=img/lib/active_directory/laptop_client.svg;strokeWidth=2;verticalAlign=top;spacingBottom=0;fontFamily=Helvetica;fontSize=15;fontColor=#7EA6E0;fontStyle=1;fillColor=#EDF5FF;" parent="1" vertex="1">
          <mxGeometry x="-728" y="1104" width="78.3" height="87" as="geometry" />
        </mxCell>
        <mxCell id="lFJ8bcKFK8LMrN1udut2-88" value="" style="rounded=0;whiteSpace=wrap;html=1;strokeWidth=2;align=center;verticalAlign=top;spacingTop=4;spacingBottom=0;fontFamily=Helvetica;fontSize=15;fontColor=#7EA6E0;fontStyle=1;fillColor=#FFFF33;" parent="1" vertex="1">
          <mxGeometry x="-585" y="980" width="151" height="245" as="geometry" />
        </mxCell>
        <mxCell id="lFJ8bcKFK8LMrN1udut2-89" value="" style="verticalLabelPosition=bottom;sketch=0;aspect=fixed;html=1;verticalAlign=top;strokeColor=none;align=center;outlineConnect=0;shape=mxgraph.citrix.switch;strokeWidth=2;spacingTop=4;spacingBottom=0;fontFamily=Helvetica;fontSize=15;fontColor=#7EA6E0;fontStyle=1;fillColor=#EDF5FF;" parent="1" vertex="1">
          <mxGeometry x="-560" y="1041" width="92" height="41.5" as="geometry" />
        </mxCell>
        <mxCell id="lFJ8bcKFK8LMrN1udut2-90" value="" style="image;aspect=fixed;perimeter=ellipsePerimeter;html=1;align=center;shadow=0;dashed=0;spacingTop=3;image=img/lib/active_directory/laptop_client.svg;strokeWidth=2;verticalAlign=top;spacingBottom=0;fontFamily=Helvetica;fontSize=15;fontColor=#7EA6E0;fontStyle=1;fillColor=#EDF5FF;" parent="1" vertex="1">
          <mxGeometry x="-561" y="1104" width="78.3" height="87" as="geometry" />
        </mxCell>
        <mxCell id="lFJ8bcKFK8LMrN1udut2-91" value="" style="rounded=0;whiteSpace=wrap;html=1;strokeWidth=2;align=center;verticalAlign=top;spacingTop=4;spacingBottom=0;fontFamily=Helvetica;fontSize=15;fontColor=#7EA6E0;fontStyle=1;fillColor=#00FFFF;" parent="1" vertex="1">
          <mxGeometry x="-418" y="980" width="151" height="245" as="geometry" />
        </mxCell>
        <mxCell id="lFJ8bcKFK8LMrN1udut2-92" value="" style="verticalLabelPosition=bottom;sketch=0;aspect=fixed;html=1;verticalAlign=top;strokeColor=none;align=center;outlineConnect=0;shape=mxgraph.citrix.switch;strokeWidth=2;spacingTop=4;spacingBottom=0;fontFamily=Helvetica;fontSize=15;fontColor=#7EA6E0;fontStyle=1;fillColor=#EDF5FF;" parent="1" vertex="1">
          <mxGeometry x="-393" y="1041" width="92" height="41.5" as="geometry" />
        </mxCell>
        <mxCell id="lFJ8bcKFK8LMrN1udut2-93" value="" style="image;aspect=fixed;perimeter=ellipsePerimeter;html=1;align=center;shadow=0;dashed=0;spacingTop=3;image=img/lib/active_directory/laptop_client.svg;strokeWidth=2;verticalAlign=top;spacingBottom=0;fontFamily=Helvetica;fontSize=15;fontColor=#7EA6E0;fontStyle=1;fillColor=#EDF5FF;" parent="1" vertex="1">
          <mxGeometry x="-394" y="1104" width="78.3" height="87" as="geometry" />
        </mxCell>
        <mxCell id="lFJ8bcKFK8LMrN1udut2-94" value="" style="rounded=0;whiteSpace=wrap;html=1;strokeWidth=2;align=center;verticalAlign=top;spacingTop=4;spacingBottom=0;fontFamily=Helvetica;fontSize=15;fontColor=#7EA6E0;fontStyle=1;fillColor=#9966CC;" parent="1" vertex="1">
          <mxGeometry x="-247" y="980" width="151" height="245" as="geometry" />
        </mxCell>
        <mxCell id="lFJ8bcKFK8LMrN1udut2-95" value="" style="verticalLabelPosition=bottom;sketch=0;aspect=fixed;html=1;verticalAlign=top;strokeColor=none;align=center;outlineConnect=0;shape=mxgraph.citrix.switch;strokeWidth=2;spacingTop=4;spacingBottom=0;fontFamily=Helvetica;fontSize=15;fontColor=#7EA6E0;fontStyle=1;fillColor=#EDF5FF;" parent="1" vertex="1">
          <mxGeometry x="-222" y="1041" width="92" height="41.5" as="geometry" />
        </mxCell>
        <mxCell id="lFJ8bcKFK8LMrN1udut2-96" value="" style="image;aspect=fixed;perimeter=ellipsePerimeter;html=1;align=center;shadow=0;dashed=0;spacingTop=3;image=img/lib/active_directory/laptop_client.svg;strokeWidth=2;verticalAlign=top;spacingBottom=0;fontFamily=Helvetica;fontSize=15;fontColor=#7EA6E0;fontStyle=1;fillColor=#EDF5FF;" parent="1" vertex="1">
          <mxGeometry x="-223" y="1104" width="78.3" height="87" as="geometry" />
        </mxCell>
        <mxCell id="lFJ8bcKFK8LMrN1udut2-97" value="" style="rounded=0;whiteSpace=wrap;html=1;strokeWidth=2;align=center;verticalAlign=top;spacingTop=4;spacingBottom=0;fontFamily=Helvetica;fontSize=15;fontColor=#7EA6E0;fontStyle=1;fillColor=#FF007F;" parent="1" vertex="1">
          <mxGeometry x="-76" y="980" width="151" height="245" as="geometry" />
        </mxCell>
        <mxCell id="lFJ8bcKFK8LMrN1udut2-98" value="" style="verticalLabelPosition=bottom;sketch=0;aspect=fixed;html=1;verticalAlign=top;strokeColor=none;align=center;outlineConnect=0;shape=mxgraph.citrix.switch;strokeWidth=2;spacingTop=4;spacingBottom=0;fontFamily=Helvetica;fontSize=15;fontColor=#7EA6E0;fontStyle=1;fillColor=#EDF5FF;" parent="1" vertex="1">
          <mxGeometry x="-51" y="1041" width="92" height="41.5" as="geometry" />
        </mxCell>
        <mxCell id="lFJ8bcKFK8LMrN1udut2-99" value="" style="image;aspect=fixed;perimeter=ellipsePerimeter;html=1;align=center;shadow=0;dashed=0;spacingTop=3;image=img/lib/active_directory/laptop_client.svg;strokeWidth=2;verticalAlign=top;spacingBottom=0;fontFamily=Helvetica;fontSize=15;fontColor=#7EA6E0;fontStyle=1;fillColor=#EDF5FF;" parent="1" vertex="1">
          <mxGeometry x="-52" y="1104" width="78.3" height="87" as="geometry" />
        </mxCell>
        <mxCell id="lFJ8bcKFK8LMrN1udut2-103" value="" style="endArrow=classic;startArrow=classic;html=1;rounded=0;fontFamily=Helvetica;fontSize=15;fontColor=#7EA6E0;fontStyle=1;exitX=0.5;exitY=0;exitDx=0;exitDy=0;exitPerimeter=0;entryX=0.5;entryY=1;entryDx=0;entryDy=0;" parent="1" source="lFJ8bcKFK8LMrN1udut2-23" target="lFJ8bcKFK8LMrN1udut2-3" edge="1">
          <mxGeometry width="50" height="50" relative="1" as="geometry">
            <mxPoint x="-429" y="943" as="sourcePoint" />
            <mxPoint x="-379" y="893" as="targetPoint" />
          </mxGeometry>
        </mxCell>
        <mxCell id="lFJ8bcKFK8LMrN1udut2-104" value="" style="endArrow=classic;startArrow=classic;html=1;rounded=0;fontFamily=Helvetica;fontSize=15;fontColor=#7EA6E0;fontStyle=1;exitX=0.5;exitY=0;exitDx=0;exitDy=0;exitPerimeter=0;" parent="1" source="lFJ8bcKFK8LMrN1udut2-24" edge="1">
          <mxGeometry width="50" height="50" relative="1" as="geometry">
            <mxPoint x="-464" y="921" as="sourcePoint" />
            <mxPoint x="-589" y="790" as="targetPoint" />
          </mxGeometry>
        </mxCell>
        <mxCell id="lFJ8bcKFK8LMrN1udut2-105" value="" style="endArrow=none;html=1;rounded=0;fontFamily=Helvetica;fontSize=15;fontColor=#7EA6E0;fontStyle=1;exitX=0.5;exitY=0;exitDx=0;exitDy=0;entryX=0.5;entryY=1;entryDx=0;entryDy=0;entryPerimeter=0;fillColor=#6600CC;strokeColor=#6600CC;" parent="1" source="lFJ8bcKFK8LMrN1udut2-40" target="lFJ8bcKFK8LMrN1udut2-23" edge="1">
          <mxGeometry width="50" height="50" relative="1" as="geometry">
            <mxPoint x="-743" y="905" as="sourcePoint" />
            <mxPoint x="-693" y="855" as="targetPoint" />
          </mxGeometry>
        </mxCell>
        <mxCell id="lFJ8bcKFK8LMrN1udut2-106" value="" style="endArrow=none;html=1;rounded=0;fontFamily=Helvetica;fontSize=15;fontColor=#7EA6E0;fontStyle=1;exitX=0.5;exitY=0;exitDx=0;exitDy=0;entryX=0.5;entryY=1;entryDx=0;entryDy=0;entryPerimeter=0;fillColor=#6600CC;strokeColor=#6600CC;" parent="1" source="lFJ8bcKFK8LMrN1udut2-40" target="lFJ8bcKFK8LMrN1udut2-24" edge="1">
          <mxGeometry width="50" height="50" relative="1" as="geometry">
            <mxPoint x="-743" y="905" as="sourcePoint" />
            <mxPoint x="-693" y="855" as="targetPoint" />
          </mxGeometry>
        </mxCell>
        <mxCell id="lFJ8bcKFK8LMrN1udut2-107" value="" style="endArrow=classic;startArrow=classic;html=1;rounded=0;fontFamily=Helvetica;fontSize=15;fontColor=#7EA6E0;fontStyle=1;exitX=0.5;exitY=0;exitDx=0;exitDy=0;exitPerimeter=0;entryX=0.5;entryY=1;entryDx=0;entryDy=0;" parent="1" source="lFJ8bcKFK8LMrN1udut2-25" target="lFJ8bcKFK8LMrN1udut2-35" edge="1">
          <mxGeometry width="50" height="50" relative="1" as="geometry">
            <mxPoint x="-366" y="905" as="sourcePoint" />
            <mxPoint x="-316" y="855" as="targetPoint" />
          </mxGeometry>
        </mxCell>
        <mxCell id="lFJ8bcKFK8LMrN1udut2-108" value="" style="endArrow=classic;startArrow=classic;html=1;rounded=0;fontFamily=Helvetica;fontSize=15;fontColor=#7EA6E0;fontStyle=1;exitX=0.5;exitY=0;exitDx=0;exitDy=0;exitPerimeter=0;entryX=0.5;entryY=1;entryDx=0;entryDy=0;" parent="1" source="lFJ8bcKFK8LMrN1udut2-26" target="lFJ8bcKFK8LMrN1udut2-4" edge="1">
          <mxGeometry width="50" height="50" relative="1" as="geometry">
            <mxPoint x="-366" y="905" as="sourcePoint" />
            <mxPoint x="-316" y="855" as="targetPoint" />
          </mxGeometry>
        </mxCell>
        <mxCell id="lFJ8bcKFK8LMrN1udut2-109" value="" style="endArrow=classic;startArrow=classic;html=1;rounded=0;fontFamily=Helvetica;fontSize=15;fontColor=#7EA6E0;fontStyle=1;exitX=0.5;exitY=0;exitDx=0;exitDy=0;exitPerimeter=0;entryX=0.5;entryY=1;entryDx=0;entryDy=0;" parent="1" source="lFJ8bcKFK8LMrN1udut2-27" target="lFJ8bcKFK8LMrN1udut2-5" edge="1">
          <mxGeometry width="50" height="50" relative="1" as="geometry">
            <mxPoint x="-366" y="905" as="sourcePoint" />
            <mxPoint x="-316" y="855" as="targetPoint" />
          </mxGeometry>
        </mxCell>
        <mxCell id="lFJ8bcKFK8LMrN1udut2-110" value="" style="endArrow=classic;startArrow=classic;html=1;rounded=0;fontFamily=Helvetica;fontSize=15;fontColor=#7EA6E0;fontStyle=1;exitX=0.5;exitY=0;exitDx=0;exitDy=0;exitPerimeter=0;entryX=0.5;entryY=1;entryDx=0;entryDy=0;" parent="1" source="lFJ8bcKFK8LMrN1udut2-29" target="lFJ8bcKFK8LMrN1udut2-5" edge="1">
          <mxGeometry width="50" height="50" relative="1" as="geometry">
            <mxPoint x="-366" y="905" as="sourcePoint" />
            <mxPoint x="-316" y="855" as="targetPoint" />
          </mxGeometry>
        </mxCell>
        <mxCell id="lFJ8bcKFK8LMrN1udut2-111" value="" style="endArrow=none;html=1;rounded=0;fontFamily=Helvetica;fontSize=15;fontColor=#7EA6E0;fontStyle=1;exitX=0.5;exitY=0;exitDx=0;exitDy=0;entryX=0.5;entryY=1;entryDx=0;entryDy=0;entryPerimeter=0;fillColor=#FF3399;strokeColor=#FF3399;" parent="1" source="lFJ8bcKFK8LMrN1udut2-64" target="lFJ8bcKFK8LMrN1udut2-25" edge="1">
          <mxGeometry width="50" height="50" relative="1" as="geometry">
            <mxPoint x="-555" y="1006" as="sourcePoint" />
            <mxPoint x="-505" y="956" as="targetPoint" />
          </mxGeometry>
        </mxCell>
        <mxCell id="lFJ8bcKFK8LMrN1udut2-112" value="" style="endArrow=none;html=1;rounded=0;fontFamily=Helvetica;fontSize=15;fontColor=#7EA6E0;fontStyle=1;exitX=0.5;exitY=0;exitDx=0;exitDy=0;entryX=0.5;entryY=1;entryDx=0;entryDy=0;entryPerimeter=0;strokeColor=#FF3399;" parent="1" source="lFJ8bcKFK8LMrN1udut2-64" target="lFJ8bcKFK8LMrN1udut2-26" edge="1">
          <mxGeometry width="50" height="50" relative="1" as="geometry">
            <mxPoint x="-555" y="1006" as="sourcePoint" />
            <mxPoint x="-505" y="956" as="targetPoint" />
          </mxGeometry>
        </mxCell>
        <mxCell id="lFJ8bcKFK8LMrN1udut2-113" value="" style="endArrow=none;html=1;rounded=0;fontFamily=Helvetica;fontSize=15;fontColor=#7EA6E0;fontStyle=1;exitX=0.5;exitY=0;exitDx=0;exitDy=0;entryX=0.5;entryY=1;entryDx=0;entryDy=0;entryPerimeter=0;strokeColor=#66FFB3;" parent="1" source="lFJ8bcKFK8LMrN1udut2-85" target="lFJ8bcKFK8LMrN1udut2-25" edge="1">
          <mxGeometry width="50" height="50" relative="1" as="geometry">
            <mxPoint x="-537" y="1101" as="sourcePoint" />
            <mxPoint x="-487" y="1051" as="targetPoint" />
          </mxGeometry>
        </mxCell>
        <mxCell id="lFJ8bcKFK8LMrN1udut2-114" value="" style="endArrow=none;html=1;rounded=0;fontFamily=Helvetica;fontSize=15;fontColor=#7EA6E0;fontStyle=1;exitX=0.5;exitY=0;exitDx=0;exitDy=0;entryX=0.5;entryY=1;entryDx=0;entryDy=0;entryPerimeter=0;strokeColor=#FFFF33;" parent="1" source="lFJ8bcKFK8LMrN1udut2-88" target="lFJ8bcKFK8LMrN1udut2-26" edge="1">
          <mxGeometry width="50" height="50" relative="1" as="geometry">
            <mxPoint x="-537" y="1101" as="sourcePoint" />
            <mxPoint x="-487" y="1051" as="targetPoint" />
          </mxGeometry>
        </mxCell>
        <mxCell id="lFJ8bcKFK8LMrN1udut2-115" value="" style="endArrow=none;html=1;rounded=0;fontFamily=Helvetica;fontSize=15;fontColor=#7EA6E0;fontStyle=1;exitX=0.5;exitY=1;exitDx=0;exitDy=0;exitPerimeter=0;entryX=0.5;entryY=0;entryDx=0;entryDy=0;strokeColor=#00FFFF;" parent="1" source="lFJ8bcKFK8LMrN1udut2-25" target="lFJ8bcKFK8LMrN1udut2-91" edge="1">
          <mxGeometry width="50" height="50" relative="1" as="geometry">
            <mxPoint x="-537" y="1101" as="sourcePoint" />
            <mxPoint x="-487" y="1051" as="targetPoint" />
          </mxGeometry>
        </mxCell>
        <mxCell id="lFJ8bcKFK8LMrN1udut2-116" value="" style="endArrow=none;html=1;rounded=0;fontFamily=Helvetica;fontSize=15;fontColor=#7EA6E0;fontStyle=1;entryX=0.5;entryY=1;entryDx=0;entryDy=0;entryPerimeter=0;exitX=0.5;exitY=0;exitDx=0;exitDy=0;strokeColor=#00FFFF;" parent="1" source="lFJ8bcKFK8LMrN1udut2-91" target="lFJ8bcKFK8LMrN1udut2-26" edge="1">
          <mxGeometry width="50" height="50" relative="1" as="geometry">
            <mxPoint x="-537" y="1101" as="sourcePoint" />
            <mxPoint x="-487" y="1051" as="targetPoint" />
          </mxGeometry>
        </mxCell>
        <mxCell id="lFJ8bcKFK8LMrN1udut2-119" value="" style="endArrow=none;html=1;rounded=0;fontFamily=Helvetica;fontSize=15;fontColor=#7EA6E0;fontStyle=1;entryX=0.5;entryY=1;entryDx=0;entryDy=0;entryPerimeter=0;exitX=0.5;exitY=0;exitDx=0;exitDy=0;strokeColor=#9966CC;" parent="1" source="lFJ8bcKFK8LMrN1udut2-94" target="lFJ8bcKFK8LMrN1udut2-27" edge="1">
          <mxGeometry width="50" height="50" relative="1" as="geometry">
            <mxPoint x="-513" y="1044" as="sourcePoint" />
            <mxPoint x="-463" y="994" as="targetPoint" />
          </mxGeometry>
        </mxCell>
        <mxCell id="lFJ8bcKFK8LMrN1udut2-120" value="" style="endArrow=none;html=1;rounded=0;fontFamily=Helvetica;fontSize=15;fontColor=#7EA6E0;fontStyle=1;entryX=0.5;entryY=1;entryDx=0;entryDy=0;entryPerimeter=0;exitX=0.5;exitY=0;exitDx=0;exitDy=0;strokeColor=#9966CC;" parent="1" source="lFJ8bcKFK8LMrN1udut2-94" target="lFJ8bcKFK8LMrN1udut2-29" edge="1">
          <mxGeometry width="50" height="50" relative="1" as="geometry">
            <mxPoint x="-513" y="1044" as="sourcePoint" />
            <mxPoint x="-463" y="994" as="targetPoint" />
          </mxGeometry>
        </mxCell>
        <mxCell id="lFJ8bcKFK8LMrN1udut2-121" value="" style="endArrow=none;html=1;rounded=0;fontFamily=Helvetica;fontSize=15;fontColor=#7EA6E0;fontStyle=1;entryX=0.5;entryY=1;entryDx=0;entryDy=0;entryPerimeter=0;exitX=0.5;exitY=0;exitDx=0;exitDy=0;strokeColor=#FF007F;" parent="1" source="lFJ8bcKFK8LMrN1udut2-97" target="lFJ8bcKFK8LMrN1udut2-27" edge="1">
          <mxGeometry width="50" height="50" relative="1" as="geometry">
            <mxPoint x="-513" y="1044" as="sourcePoint" />
            <mxPoint x="-463" y="994" as="targetPoint" />
          </mxGeometry>
        </mxCell>
        <mxCell id="lFJ8bcKFK8LMrN1udut2-122" value="" style="endArrow=none;html=1;rounded=0;fontFamily=Helvetica;fontSize=15;fontColor=#7EA6E0;fontStyle=1;entryX=0.5;entryY=1;entryDx=0;entryDy=0;entryPerimeter=0;exitX=0.5;exitY=0;exitDx=0;exitDy=0;strokeColor=#FF007F;" parent="1" source="lFJ8bcKFK8LMrN1udut2-97" target="lFJ8bcKFK8LMrN1udut2-29" edge="1">
          <mxGeometry width="50" height="50" relative="1" as="geometry">
            <mxPoint x="-513" y="1044" as="sourcePoint" />
            <mxPoint x="-463" y="994" as="targetPoint" />
          </mxGeometry>
        </mxCell>
        <mxCell id="lFJ8bcKFK8LMrN1udut2-123" value="" style="image;html=1;image=img/lib/clip_art/networking/Router_Icon_128x128.png;shadow=1;" parent="1" vertex="1">
          <mxGeometry x="-1047" y="730" width="80" height="80" as="geometry" />
        </mxCell>
        <mxCell id="lFJ8bcKFK8LMrN1udut2-124" value="" style="verticalLabelPosition=bottom;html=1;verticalAlign=top;strokeWidth=1;align=center;outlineConnect=0;dashed=0;outlineConnect=0;shape=mxgraph.aws3d.dataCenter;strokeColor=#5E5E5E;aspect=fixed;spacingTop=4;spacingBottom=0;fontFamily=Helvetica;fontSize=15;fontColor=#7EA6E0;fontStyle=1;fillColor=#EDF5FF;" parent="1" vertex="1">
          <mxGeometry x="-1043.81" y="824" width="73.63" height="85" as="geometry" />
        </mxCell>
        <mxCell id="lFJ8bcKFK8LMrN1udut2-129" value="" style="endArrow=classic;startArrow=classic;html=1;rounded=0;fontFamily=Helvetica;fontSize=15;fontColor=#7EA6E0;fontStyle=1;exitX=0.5;exitY=0;exitDx=0;exitDy=0;entryX=0.5;entryY=0;entryDx=0;entryDy=0;" parent="1" source="lFJ8bcKFK8LMrN1udut2-123" target="lFJ8bcKFK8LMrN1udut2-3" edge="1">
          <mxGeometry width="50" height="50" relative="1" as="geometry">
            <mxPoint x="-738" y="742" as="sourcePoint" />
            <mxPoint x="-688" y="692" as="targetPoint" />
            <Array as="points">
              <mxPoint x="-1007" y="684" />
              <mxPoint x="-589" y="684" />
            </Array>
          </mxGeometry>
        </mxCell>
        <mxCell id="lFJ8bcKFK8LMrN1udut2-130" value="" style="endArrow=classic;startArrow=classic;html=1;rounded=0;fontFamily=Helvetica;fontSize=15;fontColor=#7EA6E0;fontStyle=1;exitX=0.488;exitY=0.046;exitDx=0;exitDy=0;exitPerimeter=0;entryX=0;entryY=0.5;entryDx=0;entryDy=0;" parent="1" source="lFJ8bcKFK8LMrN1udut2-1" target="lFJ8bcKFK8LMrN1udut2-3" edge="1">
          <mxGeometry width="50" height="50" relative="1" as="geometry">
            <mxPoint x="-738" y="882" as="sourcePoint" />
            <mxPoint x="-688" y="832" as="targetPoint" />
            <Array as="points">
              <mxPoint x="-789" y="750" />
            </Array>
          </mxGeometry>
        </mxCell>
        <mxCell id="lFJ8bcKFK8LMrN1udut2-131" value="" style="endArrow=none;html=1;rounded=0;fontFamily=Helvetica;fontSize=15;fontColor=#7EA6E0;fontStyle=1;exitX=0.5;exitY=0;exitDx=0;exitDy=0;entryX=0.5;entryY=1;entryDx=0;entryDy=0;entryPerimeter=0;strokeColor=#66FFB3;" parent="1" source="lFJ8bcKFK8LMrN1udut2-85" target="lFJ8bcKFK8LMrN1udut2-26" edge="1">
          <mxGeometry width="50" height="50" relative="1" as="geometry">
            <mxPoint x="-561" y="971" as="sourcePoint" />
            <mxPoint x="-511" y="921" as="targetPoint" />
          </mxGeometry>
        </mxCell>
        <mxCell id="lFJ8bcKFK8LMrN1udut2-132" value="" style="endArrow=none;html=1;rounded=0;fontFamily=Helvetica;fontSize=15;fontColor=#7EA6E0;fontStyle=1;exitX=0.5;exitY=0;exitDx=0;exitDy=0;entryX=0.5;entryY=1;entryDx=0;entryDy=0;entryPerimeter=0;strokeColor=#FFFF33;" parent="1" source="lFJ8bcKFK8LMrN1udut2-88" target="lFJ8bcKFK8LMrN1udut2-25" edge="1">
          <mxGeometry width="50" height="50" relative="1" as="geometry">
            <mxPoint x="-476" y="971" as="sourcePoint" />
            <mxPoint x="-426" y="921" as="targetPoint" />
          </mxGeometry>
        </mxCell>
        <mxCell id="ZygVsaCtUWGt-RFa_Jxd-1" value="Text" style="text;html=1;align=center;verticalAlign=middle;whiteSpace=wrap;rounded=0;" vertex="1" parent="1">
          <mxGeometry x="-1039.5" y="996" width="60" height="30" as="geometry" />
        </mxCell>
      </root>
    </mxGraphModel>
  </diagram>
</mxfile>
